<?xml version="1.0" encoding="UTF-8"?>
<svg width="1000" height="720" viewBox="0 0 1000 720" xmlns="http://www.w3.org/2000/svg" font-family="'Segoe UI', Arial, sans-serif">
  <!-- Background -->
  <rect width="1000" height="720" fill="#0f1117"/>

  <!-- Title -->
  <text x="500" y="42" text-anchor="middle" font-size="26" font-weight="bold" fill="#22d3ee" letter-spacing="2">4LOCK PLATFORM ARCHITECTURE</text>
  <text x="500" y="62" text-anchor="middle" font-size="12" fill="#6b7280">Hybrid Cloud · Local Deployment · One-Click Apps</text>

  <!-- ── USER ── -->
  <rect x="430" y="82" width="140" height="44" rx="8" fill="#1e293b" stroke="#22d3ee" stroke-width="1.5"/>
  <text x="500" y="100" text-anchor="middle" font-size="11" fill="#94a3b8">👤</text>
  <text x="500" y="118" text-anchor="middle" font-size="13" font-weight="bold" fill="#e2e8f0">User / Browser</text>

  <!-- Arrow: User → Console -->
  <line x1="500" y1="126" x2="500" y2="150" stroke="#22d3ee" stroke-width="1.5" stroke-dasharray="4,3"/>
  <polygon points="500,152 496,144 504,144" fill="#22d3ee"/>

  <!-- ── FRONTEND LAYER ── -->
  <rect x="20" y="155" width="960" height="110" rx="10" fill="#0d1f2d" stroke="#1e3a5f" stroke-width="1.5"/>
  <text x="34" y="174" font-size="10" fill="#3b82f6" font-weight="bold" letter-spacing="1">FRONTEND LAYER</text>

  <!-- 4lock-console -->
  <rect x="60" y="180" width="200" height="70" rx="8" fill="#1e293b" stroke="#3b82f6" stroke-width="2"/>
  <text x="160" y="202" text-anchor="middle" font-size="11" fill="#60a5fa">React 18 + Vite + MUI</text>
  <text x="160" y="220" text-anchor="middle" font-size="14" font-weight="bold" fill="#e2e8f0">4lock-console</text>
  <text x="160" y="237" text-anchor="middle" font-size="10" fill="#94a3b8">Web Console · Port 3002</text>

  <!-- 4lock-landing -->
  <rect x="300" y="180" width="190" height="70" rx="8" fill="#1e293b" stroke="#8b5cf6" stroke-width="2"/>
  <text x="395" y="202" text-anchor="middle" font-size="11" fill="#a78bfa">Next.js 15 + Tailwind</text>
  <text x="395" y="220" text-anchor="middle" font-size="14" font-weight="bold" fill="#e2e8f0">4lock-landing</text>
  <text x="395" y="237" text-anchor="middle" font-size="10" fill="#94a3b8">Marketing Site · 4lock.net</text>

  <!-- 4lock-kond -->
  <rect x="525" y="180" width="190" height="70" rx="8" fill="#1e293b" stroke="#6b7280" stroke-width="2"/>
  <text x="620" y="202" text-anchor="middle" font-size="11" fill="#9ca3af">React + CoreUI</text>
  <text x="620" y="220" text-anchor="middle" font-size="14" font-weight="bold" fill="#e2e8f0">4lock-kond</text>
  <text x="620" y="237" text-anchor="middle" font-size="10" fill="#94a3b8">Internal Ops Dashboard</text>

  <!-- 4lock-keycloakify -->
  <rect x="750" y="180" width="200" height="70" rx="8" fill="#1e293b" stroke="#f59e0b" stroke-width="2"/>
  <text x="850" y="202" text-anchor="middle" font-size="11" fill="#fbbf24">Keycloakify + Storybook</text>
  <text x="850" y="220" text-anchor="middle" font-size="14" font-weight="bold" fill="#e2e8f0">4lock-keycloakify</text>
  <text x="850" y="237" text-anchor="middle" font-size="10" fill="#94a3b8">Custom Auth UI Theme</text>

  <!-- Arrow: Console → API -->
  <line x1="160" y1="265" x2="160" y2="292" stroke="#22d3ee" stroke-width="1.5"/>
  <line x1="160" y1="292" x2="430" y2="292" stroke="#22d3ee" stroke-width="1.5" stroke-dasharray="5,3"/>
  <text x="295" y="288" text-anchor="middle" font-size="9" fill="#22d3ee">REST + Socket.io</text>
  <polygon points="430,292 422,288 422,296" fill="#22d3ee"/>

  <!-- ── API LAYER ── -->
  <rect x="20" y="300" width="960" height="100" rx="10" fill="#0d1f2d" stroke="#1e3a5f" stroke-width="1.5"/>
  <text x="34" y="318" font-size="10" fill="#22d3ee" font-weight="bold" letter-spacing="1">API LAYER</text>

  <!-- 4lock-api -->
  <rect x="340" y="322" width="320" height="64" rx="8" fill="#1e293b" stroke="#22d3ee" stroke-width="2.5"/>
  <text x="500" y="344" text-anchor="middle" font-size="11" fill="#67e8f9">Node.js · Express · TypeORM · gRPC · Socket.io</text>
  <text x="500" y="362" text-anchor="middle" font-size="15" font-weight="bold" fill="#e2e8f0">4lock-api</text>
  <text x="500" y="378" text-anchor="middle" font-size="10" fill="#94a3b8">Port 3001 (HTTP) · 50051 (gRPC)</text>

  <!-- Arrow: API → Agent -->
  <line x1="500" y1="400" x2="500" y2="422" stroke="#22d3ee" stroke-width="1.5"/>
  <text x="530" y="416" font-size="9" fill="#22d3ee">gRPC</text>
  <polygon points="500,424 496,416 504,416" fill="#22d3ee"/>

  <!-- ── AGENT LAYER ── -->
  <rect x="20" y="428" width="960" height="120" rx="10" fill="#0d1f2d" stroke="#1e3a5f" stroke-width="1.5"/>
  <text x="34" y="447" font-size="10" fill="#10b981" font-weight="bold" letter-spacing="1">AGENT LAYER — runs on user's machine</text>

  <!-- 4lock-agent -->
  <rect x="200" y="454" width="200" height="78" rx="8" fill="#1e293b" stroke="#10b981" stroke-width="2.5"/>
  <text x="300" y="473" text-anchor="middle" font-size="11" fill="#6ee7b7">Rust + Tauri + React</text>
  <text x="300" y="491" text-anchor="middle" font-size="14" font-weight="bold" fill="#e2e8f0">4lock-agent</text>
  <text x="300" y="507" text-anchor="middle" font-size="10" fill="#94a3b8">VM/Container Orchestrator</text>
  <text x="300" y="522" text-anchor="middle" font-size="10" fill="#6b7280">macOS · Windows · Linux</text>

  <!-- 4lock-core -->
  <rect x="430" y="454" width="180" height="78" rx="8" fill="#1e293b" stroke="#10b981" stroke-width="2"/>
  <text x="520" y="473" text-anchor="middle" font-size="11" fill="#6ee7b7">Rust</text>
  <text x="520" y="491" text-anchor="middle" font-size="14" font-weight="bold" fill="#e2e8f0">4lock-core</text>
  <text x="520" y="507" text-anchor="middle" font-size="10" fill="#94a3b8">OCI Runtime · Blob Proxy</text>
  <text x="520" y="522" text-anchor="middle" font-size="10" fill="#6b7280">vappc daemon (VSOCK)</text>

  <!-- 4lock-vpn -->
  <rect x="635" y="454" width="150" height="78" rx="8" fill="#1e293b" stroke="#10b981" stroke-width="2"/>
  <text x="710" y="473" text-anchor="middle" font-size="11" fill="#6ee7b7">Rust</text>
  <text x="710" y="491" text-anchor="middle" font-size="14" font-weight="bold" fill="#e2e8f0">4lock-vpn</text>
  <text x="710" y="507" text-anchor="middle" font-size="10" fill="#94a3b8">P2P VPN · TUN/TAP</text>
  <text x="710" y="522" text-anchor="middle" font-size="10" fill="#6b7280">STUN · Rendezvous</text>

  <!-- helpers -->
  <rect x="46" y="470" width="130" height="46" rx="6" fill="#1e1e2e" stroke="#4b5563" stroke-width="1.5"/>
  <text x="111" y="489" text-anchor="middle" font-size="11" font-weight="bold" fill="#d1d5db">4lock-helper</text>
  <text x="111" y="505" text-anchor="middle" font-size="10" fill="#6b7280">macOS XPC (Rust)</text>

  <rect x="810" y="470" width="150" height="46" rx="6" fill="#1e1e2e" stroke="#4b5563" stroke-width="1.5"/>
  <text x="885" y="489" text-anchor="middle" font-size="11" font-weight="bold" fill="#d1d5db">4lock-windows-service</text>
  <text x="885" y="505" text-anchor="middle" font-size="10" fill="#6b7280">Hyper-V · DNS · Routes</text>

  <!-- Arrows agent ↔ core/vpn -->
  <line x1="400" y1="492" x2="430" y2="492" stroke="#10b981" stroke-width="1.5" stroke-dasharray="4,3"/>
  <line x1="610" y1="492" x2="635" y2="492" stroke="#10b981" stroke-width="1.5" stroke-dasharray="4,3"/>
  <line x1="176" y1="492" x2="200" y2="492" stroke="#4b5563" stroke-width="1.2" stroke-dasharray="3,3"/>
  <line x1="760" y1="492" x2="810" y2="492" stroke="#4b5563" stroke-width="1.2" stroke-dasharray="3,3"/>

  <!-- ── EXTERNAL SERVICES ── -->
  <rect x="20" y="566" width="960" height="100" rx="10" fill="#0d1f2d" stroke="#1e3a5f" stroke-width="1.5"/>
  <text x="34" y="584" font-size="10" fill="#f59e0b" font-weight="bold" letter-spacing="1">EXTERNAL SERVICES</text>

  <!-- Keycloak -->
  <rect x="50" y="592" width="155" height="60" rx="8" fill="#1e293b" stroke="#f59e0b" stroke-width="1.5"/>
  <text x="128" y="616" text-anchor="middle" font-size="22">🔑</text>
  <text x="128" y="634" text-anchor="middle" font-size="13" font-weight="bold" fill="#e2e8f0">Keycloak</text>
  <text x="128" y="648" text-anchor="middle" font-size="10" fill="#94a3b8">Auth · OIDC / OAuth2</text>

  <!-- PostgreSQL -->
  <rect x="230" y="592" width="155" height="60" rx="8" fill="#1e293b" stroke="#3b82f6" stroke-width="1.5"/>
  <text x="308" y="616" text-anchor="middle" font-size="22">🐘</text>
  <text x="308" y="634" text-anchor="middle" font-size="13" font-weight="bold" fill="#e2e8f0">PostgreSQL</text>
  <text x="308" y="648" text-anchor="middle" font-size="10" fill="#94a3b8">Primary DB · CNPG in prod</text>

  <!-- MinIO -->
  <rect x="410" y="592" width="155" height="60" rx="8" fill="#1e293b" stroke="#ef4444" stroke-width="1.5"/>
  <text x="488" y="616" text-anchor="middle" font-size="22">📦</text>
  <text x="488" y="634" text-anchor="middle" font-size="13" font-weight="bold" fill="#e2e8f0">MinIO</text>
  <text x="488" y="648" text-anchor="middle" font-size="10" fill="#94a3b8">Object Storage · S3 compat</text>

  <!-- ZeroTier -->
  <rect x="590" y="592" width="155" height="60" rx="8" fill="#1e293b" stroke="#10b981" stroke-width="1.5"/>
  <text x="668" y="616" text-anchor="middle" font-size="22">🌐</text>
  <text x="668" y="634" text-anchor="middle" font-size="13" font-weight="bold" fill="#e2e8f0">ZeroTier</text>
  <text x="668" y="648" text-anchor="middle" font-size="10" fill="#94a3b8">SDN · Device Networking</text>

  <!-- Kubernetes -->
  <rect x="770" y="592" width="190" height="60" rx="8" fill="#1e293b" stroke="#6b7280" stroke-width="1.5"/>
  <text x="865" y="616" text-anchor="middle" font-size="22">☸️</text>
  <text x="865" y="634" text-anchor="middle" font-size="13" font-weight="bold" fill="#e2e8f0">K8s + Vault + Flux</text>
  <text x="865" y="648" text-anchor="middle" font-size="10" fill="#94a3b8">Infra · Secrets · GitOps</text>

  <!-- Connecting lines API → services -->
  <line x1="430" y1="400" x2="128" y2="566" stroke="#f59e0b" stroke-width="1" stroke-dasharray="4,3" opacity="0.5"/>
  <line x1="480" y1="400" x2="308" y2="566" stroke="#3b82f6" stroke-width="1" stroke-dasharray="4,3" opacity="0.5"/>
  <line x1="500" y1="400" x2="488" y2="566" stroke="#ef4444" stroke-width="1" stroke-dasharray="4,3" opacity="0.5"/>
  <line x1="520" y1="400" x2="668" y2="566" stroke="#10b981" stroke-width="1" stroke-dasharray="4,3" opacity="0.5"/>

  <!-- ISO build note -->
  <rect x="820" y="454" width="0" height="0"/>
</svg>
